<?xml version="1.0" encoding="UTF-8" standalone="no"?>
<svg
   xmlns:dc="http://purl.org/dc/elements/1.1/"
   xmlns:cc="http://creativecommons.org/ns#"
   xmlns:rdf="http://www.w3.org/1999/02/22-rdf-syntax-ns#"
   xmlns:svg="http://www.w3.org/2000/svg"
   xmlns="http://www.w3.org/2000/svg"
   viewBox="0 0 380.92001 528.44"
   height="528.44"
   width="380.92001"
   xml:space="preserve"
   id="svg2"
   version="1.1"><metadata
     id="metadata8"><rdf:RDF><cc:Work
         rdf:about=""><dc:format>image/svg+xml</dc:format><dc:type
           rdf:resource="http://purl.org/dc/dcmitype/StillImage" /></cc:Work></rdf:RDF></metadata><defs
     id="defs6" /><g
     transform="matrix(1.3333333,0,0,-1.3333333,0,528.44)"
     id="g10"><g
       transform="scale(0.1)"
       id="g12"><path
         id="path14"
         style="fill:#5bc9dc;fill-opacity:1;fill-rule:nonzero;stroke:none"
         d="m 1434.76,30 c 1395.73,0 1392.1,1386.64 1392.1,1386.64 V 3933.33 H 1429.31 1427.55 30 V 1416.64 C 30,1416.64 26.3555,30 1422.09,30 h 12.67" /><path
         id="path16"
         style="fill:none;stroke:#435bb2;stroke-width:60;stroke-linecap:butt;stroke-linejoin:miter;stroke-miterlimit:4;stroke-dasharray:none;stroke-opacity:1"
         d="m 1434.76,30 c 1395.73,0 1392.1,1386.64 1392.1,1386.64 V 3933.33 H 1429.31 1427.55 30 V 1416.64 C 30,1416.64 26.3555,30 1422.09,30 Z" /><path
         id="path18"
         style="fill:#231f20;fill-opacity:1;fill-rule:nonzero;stroke:none"
         d="m 2189.97,2515.64 c -3.66,10.92 315.78,427.86 367.34,525.55 49.1,93.02 89.38,182.4 86.66,275.2 -2.54,86.41 -40.94,212.9 -111.91,289.34 -63.91,68.82 -240.2,173.33 -411.25,177.42 -279.39,6.69 -598.7,-132.84 -775.21,-199.26 -133.58,-50.26 -713.338,-281.14 -731.534,-281.14 -18.199,0 21.832,61.86 0,94.61 -21.839,32.76 -43.679,83.72 -80.066,91 -36.398,7.28 -61.875,0 -76.437,-10.92 -14.551,-10.92 -29.11,18.2 -40.028,21.83 -10.918,3.64 -36.39,0 -36.39,0 0,0 0,36.39 -10.926,40.03 -10.922,3.65 -21.836,10.92 -40.031,-3.64 -18.2,-14.55 -29.118,-7.27 -36.403,-36.39 -7.277,-29.12 -18.187,-61.87 3.649,-65.51 21.828,-3.64 72.785,3.64 83.711,-7.28 10.906,-10.92 0.003,-18.2 7.277,-54.59 7.277,-36.39 32.75,-80.07 69.141,-87.35 36.398,-7.27 54.593,-25.47 54.593,-25.47 l -178.324,-76.43 c 0,0 -18.203,-14.56 -47.324,-14.56 -29.11,0 -54.582,7.28 -61.863,-14.56 -7.282,-21.84 25.472,-90.98 25.472,-90.98 0,0 21.836,-38.22 65.512,-3.65 28.535,22.6 101.898,61.88 141.934,76.43 40.039,14.56 604.157,265.69 709.697,309.36 105.54,43.68 648.99,245.08 720.62,262.04 103.73,24.57 221.09,38.22 346.65,8.19 95.3,-22.79 222.48,-72.36 282.97,-135.57 60.96,-63.69 122.76,-164.69 107.51,-331 -12.63,-137.82 -248.6,-474.18 -419.97,-707.86" /><path
         id="path20"
         style="fill:none;stroke:#231f20;stroke-width:10;stroke-linecap:butt;stroke-linejoin:miter;stroke-miterlimit:4;stroke-dasharray:none;stroke-opacity:1"
         d="m 2189.97,2515.64 c -3.66,10.92 315.78,427.86 367.34,525.55 49.1,93.02 89.38,182.4 86.66,275.2 -2.54,86.41 -40.94,212.9 -111.91,289.34 -63.91,68.82 -240.2,173.33 -411.25,177.42 -279.39,6.69 -598.7,-132.84 -775.21,-199.26 -133.58,-50.26 -713.338,-281.14 -731.534,-281.14 -18.199,0 21.832,61.86 0,94.61 -21.839,32.76 -43.679,83.72 -80.066,91 -36.398,7.28 -61.875,0 -76.437,-10.92 -14.551,-10.92 -29.11,18.2 -40.028,21.83 -10.918,3.64 -36.39,0 -36.39,0 0,0 0,36.39 -10.926,40.03 -10.922,3.65 -21.836,10.92 -40.031,-3.64 -18.2,-14.55 -29.118,-7.27 -36.403,-36.39 -7.277,-29.12 -18.187,-61.87 3.649,-65.51 21.828,-3.64 72.785,3.64 83.711,-7.28 10.906,-10.92 0.003,-18.2 7.277,-54.59 7.277,-36.39 32.75,-80.07 69.141,-87.35 36.398,-7.27 54.593,-25.47 54.593,-25.47 l -178.324,-76.43 c 0,0 -18.203,-14.56 -47.324,-14.56 -29.11,0 -54.582,7.28 -61.863,-14.56 -7.282,-21.84 25.472,-90.98 25.472,-90.98 0,0 21.836,-38.22 65.512,-3.65 28.535,22.6 101.898,61.88 141.934,76.43 40.039,14.56 604.157,265.69 709.697,309.36 105.54,43.68 648.99,245.08 720.62,262.04 103.73,24.57 221.09,38.22 346.65,8.19 95.3,-22.79 222.48,-72.36 282.97,-135.57 60.96,-63.69 122.76,-164.69 107.51,-331 -12.63,-137.82 -248.6,-474.18 -419.97,-707.86" /><g
         transform="scale(10)"
         id="g22"><text
           id="text26"
           style="font-variant:normal;font-weight:500;font-size:39.99999237px;font-family:SeagullBT;-inkscape-font-specification:SeagullBT-Medium;writing-mode:lr-tb;fill:#f8a443;fill-opacity:1;fill-rule:nonzero;stroke:none"
           transform="matrix(0.890105,0.455755,0.455755,-0.890105,29.0258,269.794)"><tspan
             id="tspan24"
             y="0"
             x="0">M</tspan></text>
<text
           id="text30"
           style="font-variant:normal;font-weight:500;font-size:39.99999237px;font-family:SeagullBT;-inkscape-font-specification:SeagullBT-Medium;writing-mode:lr-tb;fill:#f8a443;fill-opacity:1;fill-rule:nonzero;stroke:none"
           transform="matrix(0.890104,0.455757,0.455757,-0.890104,56.9566,284.096)"><tspan
             id="tspan28"
             y="0"
             x="0">I</tspan></text>
<text
           id="text34"
           style="font-variant:normal;font-weight:500;font-size:39.99999237px;font-family:SeagullBT;-inkscape-font-specification:SeagullBT-Medium;writing-mode:lr-tb;fill:#f8a443;fill-opacity:1;fill-rule:nonzero;stroke:none"
           transform="matrix(0.9203,0.391213,0.391213,-0.9203,63.7406,288.332)"><tspan
             id="tspan32"
             y="0"
             x="0">E</tspan></text>
<text
           id="text38"
           style="font-variant:normal;font-weight:500;font-size:39.99998856px;font-family:SeagullBT;-inkscape-font-specification:SeagullBT-Medium;writing-mode:lr-tb;fill:#f8a443;fill-opacity:1;fill-rule:nonzero;stroke:none"
           transform="matrix(0.921816,0.387627,0.387627,-0.921816,81.1211,295.722)"><tspan
             id="tspan36"
             y="0"
             x="0">A</tspan></text>
<text
           id="text42"
           style="font-variant:normal;font-weight:500;font-size:39.99999237px;font-family:SeagullBT;-inkscape-font-specification:SeagullBT-Medium;writing-mode:lr-tb;fill:#f8a443;fill-opacity:1;fill-rule:nonzero;stroke:none"
           transform="matrix(0.923916,0.382595,0.382595,-0.923916,102.93,304.906)"><tspan
             id="tspan40"
             y="0"
             x="0">D</tspan></text>
<text
           id="text46"
           style="font-variant:normal;font-weight:500;font-size:40px;font-family:SeagullBT;-inkscape-font-specification:SeagullBT-Medium;writing-mode:lr-tb;fill:#f8a443;fill-opacity:1;fill-rule:nonzero;stroke:none"
           transform="matrix(0.92897,0.370155,0.370155,-0.92897,125.197,314.175)"><tspan
             id="tspan44"
             y="0"
             x="0">A</tspan></text>
<text
           id="text50"
           style="font-variant:normal;font-weight:500;font-size:40.00001144px;font-family:SeagullBT;-inkscape-font-specification:SeagullBT-Medium;writing-mode:lr-tb;fill:#f8a443;fill-opacity:1;fill-rule:nonzero;stroke:none"
           transform="matrix(0.928634,0.370998,0.370998,-0.928634,146.534,322.423)"><tspan
             id="tspan48"
             y="0"
             x="0">L</tspan></text>
<text
           id="text54"
           style="font-variant:normal;font-weight:500;font-size:39.99998474px;font-family:SeagullBT;-inkscape-font-specification:SeagullBT-Medium;writing-mode:lr-tb;fill:#f8a443;fill-opacity:1;fill-rule:nonzero;stroke:none"
           transform="matrix(0.950344,0.3112,0.3112,-0.950344,162.504,329.09)"><tspan
             id="tspan52"
             y="0"
             x="0">E</tspan></text>
<text
           id="text58"
           style="font-variant:normal;font-weight:500;font-size:40.00001907px;font-family:SeagullBT;-inkscape-font-specification:SeagullBT-Medium;writing-mode:lr-tb;fill:#f8a443;fill-opacity:1;fill-rule:nonzero;stroke:none"
           transform="matrix(0.995199,0.0978771,0.0978771,-0.995199,178.834,335.31)"><tspan
             id="tspan56"
             y="0"
             x="0">N</tspan></text>
<text
           id="text62"
           style="font-variant:normal;font-weight:500;font-size:40.00001526px;font-family:SeagullBT;-inkscape-font-specification:SeagullBT-Medium;writing-mode:lr-tb;fill:#f8a443;fill-opacity:1;fill-rule:nonzero;stroke:none"
           transform="matrix(0.995919,-0.0902563,-0.0902563,-0.995919,201.887,337.57)"><tspan
             id="tspan60"
             y="0"
             x="0">S</tspan></text>
</g><path
         id="path64"
         style="fill:#f9af54;fill-opacity:1;fill-rule:nonzero;stroke:none"
         d="m 880.316,3344.09 c 6.563,-12.82 21.993,-17.5 35.52,-10.57 13.527,6.93 18.394,22 11.824,34.82 -6.562,12.81 -21.992,17.49 -35.164,10.75 -13.527,-6.93 -18.746,-22.19 -12.18,-35 z m 67.637,34.64 c 12.945,-25.27 3.75,-54.7 -20.808,-67.28 -24.567,-12.58 -54.176,-3.03 -67.122,22.24 -12.945,25.27 -3.21,54.53 21.348,67.11 24.567,12.58 53.82,2.85 66.582,-22.07" /><path
         id="path66"
         style="fill:#f68b11;fill-opacity:1;fill-rule:nonzero;stroke:none"
         d="m 1141.68,2808.59 c 17.22,16.27 26.79,30.6 26.79,44.95 0,32.52 -32.51,58.34 -87.05,58.34 -46.86,0 -75.56,-23.9 -75.56,-57.39 0,-46.86 50.7,-74.61 123.39,-131.03 110.96,-87.04 175.04,-150.16 175.04,-246.76 0,-115.75 -88.95,-192.26 -237.22,-192.26 -98.511,0 -180.769,31.56 -252.496,96.6 26.77,46.87 43.043,74.6 52.59,84.17 22.973,21.03 60.274,35.38 113.816,44.97 -20.078,-22.01 -30.605,-42.1 -30.605,-60.25 0,-39.23 40.191,-74.63 96.625,-74.63 52.62,0 87.03,31.57 87.03,73.66 0,35.37 -28.67,64.08 -79.39,105.21 -74.585,61.21 -137.738,103.31 -172.156,148.25 -25.824,34.42 -39.218,73.65 -39.218,110.95 0,110.96 83.226,185.56 218.074,185.56 82.27,0 156.87,-22 232.43,-67.89 -28.71,-80.36 -69.83,-114.8 -152.09,-122.45" /><path
         id="path68"
         style="fill:none;stroke:#231f20;stroke-width:20;stroke-linecap:butt;stroke-linejoin:miter;stroke-miterlimit:4;stroke-dasharray:none;stroke-opacity:1"
         d="m 1141.68,2808.59 c 17.22,16.27 26.79,30.6 26.79,44.95 0,32.52 -32.51,58.34 -87.05,58.34 -46.86,0 -75.56,-23.9 -75.56,-57.39 0,-46.86 50.7,-74.61 123.39,-131.03 110.96,-87.04 175.04,-150.16 175.04,-246.76 0,-115.75 -88.95,-192.26 -237.22,-192.26 -98.511,0 -180.769,31.56 -252.496,96.6 26.77,46.87 43.043,74.6 52.59,84.17 22.973,21.03 60.274,35.38 113.816,44.97 -20.078,-22.01 -30.605,-42.1 -30.605,-60.25 0,-39.23 40.191,-74.63 96.625,-74.63 52.62,0 87.03,31.57 87.03,73.66 0,35.37 -28.67,64.08 -79.39,105.21 -74.585,61.21 -137.738,103.31 -172.156,148.25 -25.824,34.42 -39.218,73.65 -39.218,110.95 0,110.96 83.226,185.56 218.074,185.56 82.27,0 156.87,-22 232.43,-67.89 -28.71,-80.36 -69.83,-114.8 -152.09,-122.45 z" /><path
         id="path70"
         style="fill:#f68b11;fill-opacity:1;fill-rule:nonzero;stroke:none"
         d="m 1697.46,2970.45 c -9.54,-75.49 -27.86,-99.68 -96.75,-101.14 3.67,8.07 5.14,13.93 5.14,18.32 0,18.32 -16.13,19.06 -52.05,19.06 -46.16,0 -60.83,-0.74 -60.83,-32.98 v -104.07 h 104.79 c 13.94,0 27.86,2.2 41.8,7.33 -13.94,-60.09 -24.17,-73.29 -65.97,-73.29 h -81.33 v -130.45 c 0,-40.32 5.85,-54.96 40.3,-59.36 -20.52,-67.42 -27.85,-72.56 -79.89,-72.56 h -114.31 c 12.46,28.59 18.31,55.7 28.78,82.83 v 315.13 c -10.47,40.31 -14.87,54.21 -50.05,58.62 19.06,63.01 29.32,72.56 79.15,72.56 h 301.22" /><path
         id="path72"
         style="fill:none;stroke:#231f20;stroke-width:20;stroke-linecap:butt;stroke-linejoin:miter;stroke-miterlimit:4;stroke-dasharray:none;stroke-opacity:1"
         d="m 1697.46,2970.45 c -9.54,-75.49 -27.86,-99.68 -96.75,-101.14 3.67,8.07 5.14,13.93 5.14,18.32 0,18.32 -16.13,19.06 -52.05,19.06 -46.16,0 -60.83,-0.74 -60.83,-32.98 v -104.07 h 104.79 c 13.94,0 27.86,2.2 41.8,7.33 -13.94,-60.09 -24.17,-73.29 -65.97,-73.29 h -81.33 v -130.45 c 0,-40.32 5.85,-54.96 40.3,-59.36 -20.52,-67.42 -27.85,-72.56 -79.89,-72.56 h -114.31 c 12.46,28.59 18.31,55.7 28.78,82.83 v 315.13 c -10.47,40.31 -14.87,54.21 -50.05,58.62 19.06,63.01 29.32,72.56 79.15,72.56 z" /><path
         id="path74"
         style="fill:#f68b11;fill-opacity:1;fill-rule:nonzero;stroke:none"
         d="m 1842.12,2907.43 v -98.99 l 100.65,124.16 c 22.9,27.97 38.59,39.15 71.02,39.15 4.48,0 15.1,-1.11 33.56,-1.11 h 8.96 c -8.39,-33.57 -11.2,-47.55 -31.33,-55.38 -8.38,-3.35 -29.09,1.11 -50.33,-23.49 l -55.38,-63.2 120.25,-177.86 c 7.28,-10.63 17.9,-20.15 26.86,-24.05 6.71,-2.79 15.66,-3.92 26.29,-3.92 -10.63,-46.99 -17.36,-55.92 -56.51,-55.92 h -83.33 c 1.66,6.15 2.8,11.17 2.8,16.21 0,10.07 -4.5,17.33 -10.06,26.84 l -91.18,146.54 -12.27,-13.41 v -75.5 c 0,-30.78 4.45,-41.96 30.74,-45.31 -15.66,-51.45 -21.27,-55.37 -60.97,-55.37 h -84.44 c 8.94,20.68 13.97,41.38 13.97,63.19 v 240.5 c 0,30.76 -4.48,41.4 -30.77,44.75 15.65,51.46 20.7,55.38 60.41,55.38 h 85.01 c -8.94,-20.7 -13.95,-41.41 -13.95,-63.21" /><path
         id="path76"
         style="fill:none;stroke:#231f20;stroke-width:20;stroke-linecap:butt;stroke-linejoin:miter;stroke-miterlimit:4;stroke-dasharray:none;stroke-opacity:1"
         d="m 1842.12,2907.43 v -98.99 l 100.65,124.16 c 22.9,27.97 38.59,39.15 71.02,39.15 4.48,0 15.1,-1.11 33.56,-1.11 h 8.96 c -8.39,-33.57 -11.2,-47.55 -31.33,-55.38 -8.38,-3.35 -29.09,1.11 -50.33,-23.49 l -55.38,-63.2 120.25,-177.86 c 7.28,-10.63 17.9,-20.15 26.86,-24.05 6.71,-2.79 15.66,-3.92 26.29,-3.92 -10.63,-46.99 -17.36,-55.92 -56.51,-55.92 h -83.33 c 1.66,6.15 2.8,11.17 2.8,16.21 0,10.07 -4.5,17.33 -10.06,26.84 l -91.18,146.54 -12.27,-13.41 v -75.5 c 0,-30.78 4.45,-41.96 30.74,-45.31 -15.66,-51.45 -21.27,-55.37 -60.97,-55.37 h -84.44 c 8.94,20.68 13.97,41.38 13.97,63.19 v 240.5 c 0,30.76 -4.48,41.4 -30.77,44.75 15.65,51.46 20.7,55.38 60.41,55.38 h 85.01 c -8.94,-20.7 -13.95,-41.41 -13.95,-63.21 z" /><path
         id="path78"
         style="fill:#aae4f7;fill-opacity:1;fill-rule:nonzero;stroke:none"
         d="m 1714.77,608.961 2.17,-32.332 c 0,0 120.41,27.391 150.94,103.941 17.54,44.02 27.55,94.711 27.98,122.43 0.61,38.832 -29.7,-96.34 -62.73,-133.488 -30.18,-33.961 -101.25,-60.473 -118.36,-60.551" /><path
         id="path80"
         style="fill:none;stroke:#aae4f7;stroke-width:10;stroke-linecap:butt;stroke-linejoin:miter;stroke-miterlimit:4;stroke-dasharray:none;stroke-opacity:1"
         d="m 1714.77,608.961 2.17,-32.332 c 0,0 120.41,27.391 150.94,103.941 17.54,44.02 27.55,94.711 27.98,122.43 0.61,38.832 -29.7,-96.34 -62.73,-133.488 -30.18,-33.961 -101.25,-60.473 -118.36,-60.551 z" /><path
         id="path82"
         style="fill:#aae4f7;fill-opacity:1;fill-rule:nonzero;stroke:none"
         d="m 1091.47,612.18 83.75,-11.418 c 0,0 -133.26,148.488 -156.11,178.949 -22.833,30.461 72.36,-167.531 72.36,-167.531" /><path
         id="path84"
         style="fill:none;stroke:#aae4f7;stroke-width:10;stroke-linecap:butt;stroke-linejoin:miter;stroke-miterlimit:4;stroke-dasharray:none;stroke-opacity:1"
         d="m 1091.47,612.18 83.75,-11.418 c 0,0 -133.26,148.488 -156.11,178.949 -22.833,30.461 72.36,-167.531 72.36,-167.531 z" /><path
         id="path86"
         style="fill:#f8ee4b;fill-opacity:1;fill-rule:nonzero;stroke:none"
         d="m 2289.15,2627.12 c -16.25,28.44 -33.5,39.61 -76.16,42.67 -42.63,3.04 -164.49,-27.42 -207.13,-42.67 -42.63,-15.22 -151.05,-88.29 -207.12,-109.64 -127.93,-48.74 -347.75,-193.09 -478.22,-328.98 -146.23,-152.3 -267.29,-362.52 -292.42,-463 -3.05,-12.17 -106.623,-57.87 -155.358,-91.37 -48.726,-33.52 -85.293,-94.44 -76.148,-146.22 9.136,-51.78 67.011,-164.48 85.293,-185.8 18.281,-21.33 91.383,-91.38 91.383,-91.38 0,0 44.42,-149.26 102.79,-227.949 58.4,-78.691 198.77,-195.461 274.91,-225.922 76.17,-30.449 115.76,-24.359 164.49,-6.089 48.73,18.281 82.24,115.761 118.78,134.031 36.57,18.281 112.72,42.64 176.68,42.64 63.95,0 207.13,-39.601 289.38,-24.359 54.26,10.039 149.26,21.316 152.3,67 2.89,43.518 -207.13,191.908 -222.36,213.228 -15.24,21.32 -170.59,341.16 -210.2,347.25 -39.57,6.1 -48.73,-27.42 -88.32,-82.25 -21.54,-29.83 -82.24,-194.95 -130.99,-295.45 -32.01,-66.01 -76.13,-54.84 -76.13,-54.84 0,0 51.78,103.56 97.46,191.9 45.7,88.34 261.97,472.13 313.75,554.38 51.77,82.24 88.34,149.26 88.34,149.26 0,0 18.28,9.14 42.63,39.6 24.38,30.45 191.9,228.45 249.79,338.1 31.93,60.54 70.06,137.08 70.06,158.39 0,21.33 -3.05,51.79 -24.38,54.84 -21.31,3.04 -27.42,-9.13 -39.59,-27.41 -12.19,-18.28 -82.44,-127.41 -130.98,-146.22 -20.31,-7.86 -8.73,43.97 15.24,88.33 24.1,44.68 63.46,66.9 79.32,101.17 6.71,14.54 2.91,26.76 2.91,26.76" /><path
         id="path88"
         style="fill:none;stroke:#fee569;stroke-width:10;stroke-linecap:butt;stroke-linejoin:miter;stroke-miterlimit:4;stroke-dasharray:none;stroke-opacity:1"
         d="m 2289.15,2627.12 c -16.25,28.44 -33.5,39.61 -76.16,42.67 -42.63,3.04 -164.49,-27.42 -207.13,-42.67 -42.63,-15.22 -151.05,-88.29 -207.12,-109.64 -127.93,-48.74 -347.75,-193.09 -478.22,-328.98 -146.23,-152.3 -267.29,-362.52 -292.42,-463 -3.05,-12.17 -106.623,-57.87 -155.358,-91.37 -48.726,-33.52 -85.293,-94.44 -76.148,-146.22 9.136,-51.78 67.011,-164.48 85.293,-185.8 18.281,-21.33 91.383,-91.38 91.383,-91.38 0,0 44.42,-149.26 102.79,-227.949 58.4,-78.691 198.77,-195.461 274.91,-225.922 76.17,-30.449 115.76,-24.359 164.49,-6.089 48.73,18.281 82.24,115.761 118.78,134.031 36.57,18.281 112.72,42.64 176.68,42.64 63.95,0 207.13,-39.601 289.38,-24.359 54.26,10.039 149.26,21.316 152.3,67 2.89,43.518 -207.13,191.908 -222.36,213.228 -15.24,21.32 -170.59,341.16 -210.2,347.25 -39.57,6.1 -48.73,-27.42 -88.32,-82.25 -21.54,-29.83 -82.24,-194.95 -130.99,-295.45 -32.01,-66.01 -76.13,-54.84 -76.13,-54.84 0,0 51.78,103.56 97.46,191.9 45.7,88.34 261.97,472.13 313.75,554.38 51.77,82.24 88.34,149.26 88.34,149.26 0,0 18.28,9.14 42.63,39.6 24.38,30.45 191.9,228.45 249.79,338.1 31.93,60.54 70.06,137.08 70.06,158.39 0,21.33 -3.05,51.79 -24.38,54.84 -21.31,3.04 -27.42,-9.13 -39.59,-27.41 -12.19,-18.28 -82.44,-127.41 -130.98,-146.22 -20.31,-7.86 -8.73,43.97 15.24,88.33 24.1,44.68 63.46,66.9 79.32,101.17 6.71,14.54 2.91,26.76 2.91,26.76 z" /><path
         id="path90"
         style="fill:#231f20;fill-opacity:1;fill-rule:nonzero;stroke:none"
         d="m 2056.7,2545.83 c 0,0 -23.67,-55.26 -90.43,-89.27 -41.52,-21.15 -33.75,26.9 -24.62,54.31 9.14,27.42 12.69,63.46 58.12,64.49 57.75,1.27 56.93,-29.53 56.93,-29.53" /><path
         id="path92"
         style="fill:none;stroke:#231f20;stroke-width:10;stroke-linecap:butt;stroke-linejoin:miter;stroke-miterlimit:4;stroke-dasharray:none;stroke-opacity:1"
         d="m 2056.7,2545.83 c 0,0 -23.67,-55.26 -90.43,-89.27 -41.52,-21.15 -33.75,26.9 -24.62,54.31 9.14,27.42 12.69,63.46 58.12,64.49 57.75,1.27 56.93,-29.53 56.93,-29.53 z" /><path
         id="path94"
         style="fill:#ffffff;fill-opacity:1;fill-rule:nonzero;stroke:none"
         d="m 2015.16,2515.99 c -12.87,-12.23 -40.94,-2.06 -27.58,14.84 13.36,16.89 19.96,24.15 28.48,19.61 8.5,-4.53 10.16,-23.95 -0.9,-34.45" /><path
         id="path96"
         style="fill:none;stroke:#231f20;stroke-width:10;stroke-linecap:butt;stroke-linejoin:miter;stroke-miterlimit:4;stroke-dasharray:none;stroke-opacity:1"
         d="m 2015.16,2515.99 c -12.87,-12.23 -40.94,-2.06 -27.58,14.84 13.36,16.89 19.96,24.15 28.48,19.61 8.5,-4.53 10.16,-23.95 -0.9,-34.45 z" /><path
         id="path98"
         style="fill:#231f20;fill-opacity:1;fill-rule:nonzero;stroke:none"
         d="m 2138.36,2159.95 c -22.85,-24.75 -148.49,-112.33 -264.61,-131.37 -116.15,-19.03 -158.02,11.42 -177.07,30.46 -19.02,19.05 -36.17,114.23 -34.25,146.6 1.89,32.36 11.42,-59.02 28.55,-93.29 17.13,-34.26 47.6,-62.82 97.11,-66.63 49.47,-3.81 104.69,7.61 182.75,38.07 78.05,30.46 167.52,76.16 167.52,76.16" /><path
         id="path100"
         style="fill:none;stroke:#231f20;stroke-width:10;stroke-linecap:butt;stroke-linejoin:miter;stroke-miterlimit:4;stroke-dasharray:none;stroke-opacity:1"
         d="m 2138.36,2159.95 c -22.85,-24.75 -148.49,-112.33 -264.61,-131.37 -116.15,-19.03 -158.02,11.42 -177.07,30.46 -19.02,19.05 -36.17,114.23 -34.25,146.6 1.89,32.36 11.42,-59.02 28.55,-93.29 17.13,-34.26 47.6,-62.82 97.11,-66.63 49.47,-3.81 104.69,7.61 182.75,38.07 78.05,30.46 167.52,76.16 167.52,76.16 z" /><path
         id="path102"
         style="fill:#231f20;fill-opacity:1;fill-rule:nonzero;stroke:none"
         d="m 2010.83,2180.88 c 0,0 -100.47,-5.94 -144.69,24.76 -53.95,37.43 -79.98,87.58 -79.98,123.74 0,36.17 -11.96,-54.28 1.93,-85.67 26.64,-60.28 86.29,-76.78 124.36,-72.97 38.08,3.81 98.38,10.14 98.38,10.14" /><path
         id="path104"
         style="fill:none;stroke:#231f20;stroke-width:10;stroke-linecap:butt;stroke-linejoin:miter;stroke-miterlimit:4;stroke-dasharray:none;stroke-opacity:1"
         d="m 2010.83,2180.88 c 0,0 -100.47,-5.94 -144.69,24.76 -53.95,37.43 -79.98,87.58 -79.98,123.74 0,36.17 -11.96,-54.28 1.93,-85.67 26.64,-60.28 86.29,-76.78 124.36,-72.97 38.08,3.81 98.38,10.14 98.38,10.14 z" /><path
         id="path106"
         style="fill:#231f20;fill-opacity:1;fill-rule:nonzero;stroke:none"
         d="m 2192.08,2394.26 c 0,0 28.2,11.88 40.72,22.37 7.3,6.11 54.06,57.45 73.1,84.1 19.05,26.65 30.47,36.16 36.18,49.49 5.7,13.33 -30.45,-62.82 -47.6,-85.67 -17.13,-22.84 -52.15,-58.14 -69.28,-72.28 -9.18,-7.59 -18.36,-14.77 -18.36,-14.77 l -14.76,16.76" /><path
         id="path108"
         style="fill:none;stroke:#231f20;stroke-width:10;stroke-linecap:butt;stroke-linejoin:miter;stroke-miterlimit:4;stroke-dasharray:none;stroke-opacity:1"
         d="m 2192.08,2394.26 c 0,0 28.2,11.88 40.72,22.37 7.3,6.11 54.06,57.45 73.1,84.1 19.05,26.65 30.47,36.16 36.18,49.49 5.7,13.33 -30.45,-62.82 -47.6,-85.67 -17.13,-22.84 -52.15,-58.14 -69.28,-72.28 -9.18,-7.59 -18.36,-14.77 -18.36,-14.77 z" /><path
         id="path110"
         style="fill:#231f20;fill-opacity:1;fill-rule:nonzero;stroke:none"
         d="m 2241.18,2647.32 c 9.51,-3.81 20.93,-5.71 26.64,-20.95 5.72,-15.24 0,-26.66 -9.51,-36.17 -9.52,-9.52 1.91,17.13 -3.81,26.65 -5.71,9.52 -13.32,30.47 -13.32,30.47" /><path
         id="path112"
         style="fill:none;stroke:#231f20;stroke-width:10;stroke-linecap:butt;stroke-linejoin:miter;stroke-miterlimit:4;stroke-dasharray:none;stroke-opacity:1"
         d="m 2241.18,2647.32 c 9.51,-3.81 20.93,-5.71 26.64,-20.95 5.72,-15.24 0,-26.66 -9.51,-36.17 -9.52,-9.52 1.91,17.13 -3.81,26.65 -5.71,9.52 -13.32,30.47 -13.32,30.47 z" /><path
         id="path114"
         style="fill:#231f20;fill-opacity:1;fill-rule:nonzero;stroke:none"
         d="m 2177.6,2488.17 c -5.7,-19.04 -20.93,-45.69 -22.83,-70.44 -1.91,-24.76 38.09,-55.22 30.45,-72.35 -7.62,-17.13 -39.96,-30.45 -59.02,-38.07 -19.03,-7.62 -36.23,5.94 -41.94,23.07 -5.72,17.13 -12.65,65.15 6.39,99.42 19.04,34.27 13.01,11.68 11.19,-9.18 -3.2,-36.74 -8.14,-68.12 5.18,-81.46 13.34,-13.33 40.09,3.07 51.52,8.78 11.41,5.73 -10.49,38.39 -12.77,51.52 -2.99,16.95 1.19,45.52 7.57,56.7 6.68,11.69 24.26,32.01 24.26,32.01" /><path
         id="path116"
         style="fill:none;stroke:#231f20;stroke-width:10;stroke-linecap:butt;stroke-linejoin:miter;stroke-miterlimit:4;stroke-dasharray:none;stroke-opacity:1"
         d="m 2177.6,2488.17 c -5.7,-19.04 -20.93,-45.69 -22.83,-70.44 -1.91,-24.76 38.09,-55.22 30.45,-72.35 -7.62,-17.13 -39.96,-30.45 -59.02,-38.07 -19.03,-7.62 -36.23,5.94 -41.94,23.07 -5.72,17.13 -12.65,65.15 6.39,99.42 19.04,34.27 13.01,11.68 11.19,-9.18 -3.2,-36.74 -8.14,-68.12 5.18,-81.46 13.34,-13.33 40.09,3.07 51.52,8.78 11.41,5.73 -10.49,38.39 -12.77,51.52 -2.99,16.95 1.19,45.52 7.57,56.7 6.68,11.69 24.26,32.01 24.26,32.01 z" /><path
         id="path118"
         style="fill:#231f20;fill-opacity:1;fill-rule:nonzero;stroke:none"
         d="m 1916.25,2564.17 c 0,0 -65.35,-40.6 -111.05,-63.44 -45.68,-22.84 -86.29,-45.71 -106.6,-60.93 -20.31,-15.23 -22.85,-49.49 -22.85,-49.49 0,0 55.84,45.68 83.77,60.91 27.93,15.23 70.45,41.89 95.84,62.19 25.37,20.32 60.89,50.76 60.89,50.76" /><path
         id="path120"
         style="fill:none;stroke:#231f20;stroke-width:10;stroke-linecap:butt;stroke-linejoin:miter;stroke-miterlimit:4;stroke-dasharray:none;stroke-opacity:1"
         d="m 1916.25,2564.17 c 0,0 -65.35,-40.6 -111.05,-63.44 -45.68,-22.84 -86.29,-45.71 -106.6,-60.93 -20.31,-15.23 -22.85,-49.49 -22.85,-49.49 0,0 55.84,45.68 83.77,60.91 27.93,15.23 70.45,41.89 95.84,62.19 25.37,20.32 60.89,50.76 60.89,50.76 z" /><path
         id="path122"
         style="fill:#231f20;fill-opacity:1;fill-rule:nonzero;stroke:none"
         d="m 1614.83,2274.81 -5.08,35.54 c 0,0 -154.82,-96.46 -192.9,-129.47 -38.09,-32.98 -154.85,-149.75 -187.86,-197.98 -32.98,-48.24 -48.22,-72.36 -67.24,-118.04 -12.76,-30.55 87.56,123.75 178.94,211.32 51.84,49.67 118.05,100.9 166.25,133.27 39.22,26.31 107.89,65.36 107.89,65.36" /><path
         id="path124"
         style="fill:none;stroke:#231f20;stroke-width:10;stroke-linecap:butt;stroke-linejoin:miter;stroke-miterlimit:4;stroke-dasharray:none;stroke-opacity:1"
         d="m 1614.83,2274.81 -5.08,35.54 c 0,0 -154.82,-96.46 -192.9,-129.47 -38.09,-32.98 -154.85,-149.75 -187.86,-197.98 -32.98,-48.24 -48.22,-72.36 -67.24,-118.04 -12.76,-30.55 87.56,123.75 178.94,211.32 51.84,49.67 118.05,100.9 166.25,133.27 39.22,26.31 107.89,65.36 107.89,65.36 z" /><path
         id="path126"
         style="fill:#231f20;fill-opacity:1;fill-rule:nonzero;stroke:none"
         d="m 1784.28,1993.05 c 0,0 -218.29,-197.99 -246.22,-246.22 -27.91,-48.22 -58.38,-91.39 -38.09,-109.15 9.57,-8.36 96.03,-16.49 139.62,10.15 45.69,27.93 136.9,158.06 134.52,185.31 -5.06,58.38 10.17,159.91 10.17,159.91" /><path
         id="path128"
         style="fill:none;stroke:#231f20;stroke-width:10;stroke-linecap:butt;stroke-linejoin:miter;stroke-miterlimit:4;stroke-dasharray:none;stroke-opacity:1"
         d="m 1784.28,1993.05 c 0,0 -218.29,-197.99 -246.22,-246.22 -27.91,-48.22 -58.38,-91.39 -38.09,-109.15 9.57,-8.36 96.03,-16.49 139.62,10.15 45.69,27.93 136.9,158.06 134.52,185.31 -5.06,58.38 10.17,159.91 10.17,159.91 z" /><path
         id="path130"
         style="fill:#231f20;fill-opacity:1;fill-rule:nonzero;stroke:none"
         d="m 1055.77,1640.22 c 0,0 -53.32,-152.31 -45.7,-289.38 7.62,-137.07 12.69,-200.51 43.16,-274.14 30.47,-73.61 48.23,-91.368 78.67,-137.071 30.47,-45.688 -45.68,68.541 -68.51,167.531 -22.85,99 -27.93,167.54 -33.01,213.23 -3.96,35.68 2.54,144.68 7.62,180.22 5.08,35.54 17.77,139.61 17.77,139.61" /><path
         id="path132"
         style="fill:none;stroke:#231f20;stroke-width:10;stroke-linecap:butt;stroke-linejoin:miter;stroke-miterlimit:4;stroke-dasharray:none;stroke-opacity:1"
         d="m 1055.77,1640.22 c 0,0 -53.32,-152.31 -45.7,-289.38 7.62,-137.07 12.69,-200.51 43.16,-274.14 30.47,-73.61 48.23,-91.368 78.67,-137.071 30.47,-45.688 -45.68,68.541 -68.51,167.531 -22.85,99 -27.93,167.54 -33.01,213.23 -3.96,35.68 2.54,144.68 7.62,180.22 5.08,35.54 17.77,139.61 17.77,139.61 z" /><path
         id="path134"
         style="fill:#231f20;fill-opacity:1;fill-rule:nonzero;stroke:none"
         d="m 1017.1,1681.78 c 0,0 -94.346,-34.68 -132.557,-68.09 -40.566,-35.45 -57.207,-51.74 -64.848,-69.93 -6.297,-14.98 40.332,36.34 83.774,55.84 25.879,11.64 93.926,27.93 93.926,27.93 l 19.705,54.25" /><path
         id="path136"
         style="fill:none;stroke:#231f20;stroke-width:10;stroke-linecap:butt;stroke-linejoin:miter;stroke-miterlimit:4;stroke-dasharray:none;stroke-opacity:1"
         d="m 1017.1,1681.78 c 0,0 -94.346,-34.68 -132.557,-68.09 -40.566,-35.45 -57.207,-51.74 -64.848,-69.93 -6.297,-14.98 40.332,36.34 83.774,55.84 25.879,11.64 93.926,27.93 93.926,27.93 z" /><path
         id="path138"
         style="fill:#231f20;fill-opacity:1;fill-rule:nonzero;stroke:none"
         d="m 989.855,1583.74 c 0,0 -110.246,-36.29 -138.91,-60.83 -51.582,-44.18 11.868,-1.3 66.282,15.43 30.007,9.22 66.281,19.07 66.281,19.07 l 6.347,26.33" /><path
         id="path140"
         style="fill:none;stroke:#231f20;stroke-width:10;stroke-linecap:butt;stroke-linejoin:miter;stroke-miterlimit:4;stroke-dasharray:none;stroke-opacity:1"
         d="m 989.855,1583.74 c 0,0 -110.246,-36.29 -138.91,-60.83 -51.582,-44.18 11.868,-1.3 66.282,15.43 30.007,9.22 66.281,19.07 66.281,19.07 z" /><path
         id="path142"
         style="fill:#231f20;fill-opacity:1;fill-rule:nonzero;stroke:none"
         d="m 979.871,1521.99 c 0,0 -84.844,-22.17 -115.308,-39.93 -30.469,-17.78 -34.497,-44.51 -34.497,-44.51 0,0 30.247,31.3 53.086,38.92 30.149,10.05 59.106,16.19 68.536,17.76 15.238,2.55 23.632,0.52 23.632,0.52 l 4.551,27.24" /><path
         id="path144"
         style="fill:none;stroke:#231f20;stroke-width:10;stroke-linecap:butt;stroke-linejoin:miter;stroke-miterlimit:4;stroke-dasharray:none;stroke-opacity:1"
         d="m 979.871,1521.99 c 0,0 -84.844,-22.17 -115.308,-39.93 -30.469,-17.78 -34.497,-44.51 -34.497,-44.51 0,0 30.247,31.3 53.086,38.92 30.149,10.05 59.106,16.19 68.536,17.76 15.238,2.55 23.632,0.52 23.632,0.52 z" /><path
         id="path146"
         style="fill:#231f20;fill-opacity:1;fill-rule:nonzero;stroke:none"
         d="m 972.703,1457.45 c 0,0 -68.633,-8.24 -101.785,-34.41 -34.5,-27.24 -3.633,-11.8 -3.633,-11.8 0,0 21.106,11.98 49.031,14.51 27.922,2.55 53.555,0 53.555,0 l 2.832,31.7" /><path
         id="path148"
         style="fill:none;stroke:#231f20;stroke-width:10;stroke-linecap:butt;stroke-linejoin:miter;stroke-miterlimit:4;stroke-dasharray:none;stroke-opacity:1"
         d="m 972.703,1457.45 c 0,0 -68.633,-8.24 -101.785,-34.41 -34.5,-27.24 -3.633,-11.8 -3.633,-11.8 0,0 21.106,11.98 49.031,14.51 27.922,2.55 53.555,0 53.555,0 z" /><path
         id="path150"
         style="fill:#231f20;fill-opacity:1;fill-rule:nonzero;stroke:none"
         d="m 968.723,1387.4 c 0,0 -76.157,-10.17 -91.387,-33 -15.234,-22.85 38.074,5.08 38.074,5.08 l 53.313,12.69 v 15.23" /><path
         id="path152"
         style="fill:none;stroke:#231f20;stroke-width:10;stroke-linecap:butt;stroke-linejoin:miter;stroke-miterlimit:4;stroke-dasharray:none;stroke-opacity:1"
         d="m 968.723,1387.4 c 0,0 -76.157,-10.17 -91.387,-33 -15.234,-22.85 38.074,5.08 38.074,5.08 l 53.313,12.69 z" /><path
         id="path154"
         style="fill:#231f20;fill-opacity:1;fill-rule:nonzero;stroke:none"
         d="m 966.926,1333.08 c 0,0 -69.004,-24.4 -50.781,-22.84 23.777,2.02 51.011,4.76 51.011,4.76 l -0.23,18.08" /><path
         id="path156"
         style="fill:none;stroke:#231f20;stroke-width:10;stroke-linecap:butt;stroke-linejoin:miter;stroke-miterlimit:4;stroke-dasharray:none;stroke-opacity:1"
         d="m 966.926,1333.08 c 0,0 -69.004,-24.4 -50.781,-22.84 23.777,2.02 51.011,4.76 51.011,4.76 z" /><path
         id="path158"
         style="fill:#231f20;fill-opacity:1;fill-rule:nonzero;stroke:none"
         d="m 1411.14,1050.04 c 0,0 -60.41,-162.911 -64.74,-232.251 -3.81,-60.93 1.27,-73.617 41.89,-125.66 46.37,-59.43 88.83,-87.559 71.08,-11.418 -12.86,55.129 -44.44,41.891 -63.46,114.23 -19.04,72.34 7.62,228.449 15.23,255.099" /><path
         id="path160"
         style="fill:none;stroke:#231f20;stroke-width:10;stroke-linecap:butt;stroke-linejoin:miter;stroke-miterlimit:4;stroke-dasharray:none;stroke-opacity:1"
         d="m 1411.14,1050.04 c 0,0 -60.41,-162.911 -64.74,-232.251 -3.81,-60.93 1.27,-73.617 41.89,-125.66 46.37,-59.43 88.83,-87.559 71.08,-11.418 -12.86,55.129 -44.44,41.891 -63.46,114.23 -19.04,72.34 7.62,228.449 15.23,255.099 z" /><path
         id="path162"
         style="fill:#231f20;fill-opacity:1;fill-rule:nonzero;stroke:none"
         d="m 1541.22,766.309 c 0,0 170.7,-47.52 258.28,-51.321 87.56,-3.816 128.18,-11.418 101.54,26.653 -26.66,38.07 -27.93,46.961 -88.85,65.988 -60.92,19.031 -54.59,59.652 -81.23,67.269 -26.66,7.614 -88.81,13.332 -96.72,9.903 -14.45,-6.301 -87.12,-112.051 -93.02,-118.492" /><path
         id="path164"
         style="fill:none;stroke:#231f20;stroke-width:10;stroke-linecap:butt;stroke-linejoin:miter;stroke-miterlimit:4;stroke-dasharray:none;stroke-opacity:1"
         d="m 1541.22,766.309 c 0,0 170.7,-47.52 258.28,-51.321 87.56,-3.816 128.18,-11.418 101.54,26.653 -26.66,38.07 -27.93,46.961 -88.85,65.988 -60.92,19.031 -54.59,59.652 -81.23,67.269 -26.66,7.614 -88.81,13.332 -96.72,9.903 -14.45,-6.301 -87.12,-112.051 -93.02,-118.492 z" /><path
         id="path166"
         style="fill:#231f20;fill-opacity:1;fill-rule:nonzero;stroke:none"
         d="m 1586.28,1072.89 c 25.05,39.99 106.6,228.45 125.64,274.15 19.04,45.69 60.94,129.45 83.77,144.67 22.85,15.24 68.53,-45.68 68.53,-45.68 0,0 -76.13,-95.19 -102.81,-140.88 -26.64,-45.68 -151.91,-236.08 -155.57,-248.86 -2.32,-8.19 -19.56,16.6 -19.56,16.6" /><path
         id="path168"
         style="fill:none;stroke:#231f20;stroke-width:10;stroke-linecap:butt;stroke-linejoin:miter;stroke-miterlimit:4;stroke-dasharray:none;stroke-opacity:1"
         d="m 1586.28,1072.89 c 25.05,39.99 106.6,228.45 125.64,274.15 19.04,45.69 60.94,129.45 83.77,144.67 22.85,15.24 68.53,-45.68 68.53,-45.68 0,0 -76.13,-95.19 -102.81,-140.88 -26.64,-45.68 -151.91,-236.08 -155.57,-248.86 -2.32,-8.19 -19.56,16.6 -19.56,16.6 z" /><path
         id="path170"
         style="fill:#231f20;fill-opacity:1;fill-rule:nonzero;stroke:none"
         d="m 1647.19,916.781 c 0,0 57.11,38.071 133.28,38.071 76.14,0 144.67,-7.622 220.82,-7.622 76.16,0 194.2,-3.8 201.82,19.04 7.62,22.859 -106.62,121.85 -106.62,121.85 0,0 -64.73,-26.66 -110.43,-41.87 -45.68,-15.24 -170.86,-41.77 -214.1,-58.398 -47.46,-18.262 78.49,17.328 118.9,8.89 41.02,-8.57 3.81,-15.242 -76.13,-22.844 -79.96,-7.628 -167.54,-57.117 -167.54,-57.117" /><path
         id="path172"
         style="fill:none;stroke:#231f20;stroke-width:10;stroke-linecap:butt;stroke-linejoin:miter;stroke-miterlimit:4;stroke-dasharray:none;stroke-opacity:1"
         d="m 1647.19,916.781 c 0,0 57.11,38.071 133.28,38.071 76.14,0 144.67,-7.622 220.82,-7.622 76.16,0 194.2,-3.8 201.82,19.04 7.62,22.859 -106.62,121.85 -106.62,121.85 0,0 -64.73,-26.66 -110.43,-41.87 -45.68,-15.24 -170.86,-41.77 -214.1,-58.398 -47.46,-18.262 78.49,17.328 118.9,8.89 41.02,-8.57 3.81,-15.242 -76.13,-22.844 -79.96,-7.628 -167.54,-57.117 -167.54,-57.117 z" /><path
         id="path174"
         style="fill:#231f20;fill-opacity:1;fill-rule:nonzero;stroke:none"
         d="m 1643.38,958.66 197.95,83.02 218.13,82.15 c 0,0 -29.18,15.49 -52.03,38.33 -22.84,22.84 -303.13,-138.77 -303.13,-138.77 l 261.15,219.09 c 0,0 -36.5,76.67 -63.16,112.17 -26.64,35.52 -79.94,-45.69 -121.82,-110.43 -41.89,-64.72 -134.86,-200.12 -150.89,-221.71 -6.18,-8.32 13.8,-63.85 13.8,-63.85" /><path
         id="path176"
         style="fill:none;stroke:#231f20;stroke-width:10;stroke-linecap:butt;stroke-linejoin:miter;stroke-miterlimit:4;stroke-dasharray:none;stroke-opacity:1"
         d="m 1643.38,958.66 197.95,83.02 218.13,82.15 c 0,0 -29.18,15.49 -52.03,38.33 -22.84,22.84 -303.13,-138.77 -303.13,-138.77 l 261.15,219.09 c 0,0 -36.5,76.67 -63.16,112.17 -26.64,35.52 -79.94,-45.69 -121.82,-110.43 -41.89,-64.72 -134.86,-200.12 -150.89,-221.71 -6.18,-8.32 13.8,-63.85 13.8,-63.85 z" /><path
         id="path178"
         style="fill:#fee569;fill-opacity:1;fill-rule:nonzero;stroke:none"
         d="m 1592.63,872.352 c 0,0 69.8,-73.602 77.41,-85.02 7.62,-11.434 24.87,-34.781 13.95,-45.691 -8.89,-8.891 -30.14,-9.2 -61.88,11.101 -31.71,20.297 -62.12,43.469 -77.33,59.969" /><path
         id="path180"
         style="fill:none;stroke:#fee569;stroke-width:10;stroke-linecap:butt;stroke-linejoin:miter;stroke-miterlimit:4;stroke-dasharray:none;stroke-opacity:1"
         d="m 1592.63,872.352 c 0,0 69.8,-73.602 77.41,-85.02 7.62,-11.434 24.87,-34.781 13.95,-45.691 -8.89,-8.891 -30.14,-9.2 -61.88,11.101 -31.71,20.297 -62.12,43.469 -77.33,59.969" /><path
         id="path182"
         style="fill:#231f20;fill-opacity:1;fill-rule:nonzero;stroke:none"
         d="m 1487.28,1057.66 c 0,0 -35.53,-78.691 -5.06,-151.019 30.45,-72.36 57.11,-95.211 93.9,-112.969 49.45,-23.883 77.42,-57.113 100.27,-49.512 22.83,7.621 -78.69,97.738 -123.1,192.922 -34.57,74.088 -66.01,120.578 -66.01,120.578" /><path
         id="path184"
         style="fill:none;stroke:#231f20;stroke-width:10;stroke-linecap:butt;stroke-linejoin:miter;stroke-miterlimit:4;stroke-dasharray:none;stroke-opacity:1"
         d="m 1487.28,1057.66 c 0,0 -35.53,-78.691 -5.06,-151.019 30.45,-72.36 57.11,-95.211 93.9,-112.969 49.45,-23.883 77.42,-57.113 100.27,-49.512 22.83,7.621 -78.69,97.738 -123.1,192.922 -34.57,74.088 -66.01,120.578 -66.01,120.578 z" /><path
         id="path186"
         style="fill:#aae4f7;fill-opacity:1;fill-rule:nonzero;stroke:none"
         d="m 718.02,1463.46 c 0,0 -29.661,-28.23 -61.875,-65.11 -53.555,-61.32 -54.653,-64.98 61.5,8.77 l 0.375,56.34" /><path
         id="path188"
         style="fill:none;stroke:#aae4f7;stroke-width:10;stroke-linecap:butt;stroke-linejoin:miter;stroke-miterlimit:4;stroke-dasharray:none;stroke-opacity:1"
         d="m 718.02,1463.46 c 0,0 -29.661,-28.23 -61.875,-65.11 -53.555,-61.32 -54.653,-64.98 61.5,8.77 z" /><path
         id="path190"
         style="fill:#aae4f7;fill-opacity:1;fill-rule:nonzero;stroke:none"
         d="m 837.004,1246.8 -10.551,46.64 c 0,0 -93.183,-82.34 -119.336,-164.46 -23.34,-73.39 15.324,-116.14 15.324,-116.14 0,0 -3.918,94.37 30.086,142.64 22.024,31.28 84.477,91.32 84.477,91.32" /><path
         id="path192"
         style="fill:none;stroke:#aae4f7;stroke-width:10;stroke-linecap:butt;stroke-linejoin:miter;stroke-miterlimit:4;stroke-dasharray:none;stroke-opacity:1"
         d="m 837.004,1246.8 -10.551,46.64 c 0,0 -93.183,-82.34 -119.336,-164.46 -23.34,-73.39 15.324,-116.14 15.324,-116.14 0,0 -3.918,94.37 30.086,142.64 22.024,31.28 84.477,91.32 84.477,91.32 z" /><path
         id="path194"
         style="fill:#aae4f7;fill-opacity:1;fill-rule:nonzero;stroke:none"
         d="m 1369.42,585.531 c -41.89,0 -153.1,3.938 -271.15,-15.121 -118.028,-19.031 -258.707,-66.039 -286.25,-99.07 -19.649,-23.578 -28.961,-64.77 9.101,-87.61 38.09,-22.859 133.109,-66.628 346.489,-81.871 201.33,-14.371 175.15,-7.609 175.15,-7.609 0,0 -236.87,22.93 -303.67,39.48 -94.219,23.352 -144.078,42.739 -165.137,55.04 -26.211,15.32 -34.488,45.652 -19.265,64.679 15.234,19.051 64.714,43.949 114.207,59.172 49.515,15.238 111.155,31.02 183.495,42.438 72.35,11.421 217.03,30.472 217.03,30.472" /><path
         id="path196"
         style="fill:none;stroke:#aae4f7;stroke-width:10;stroke-linecap:butt;stroke-linejoin:miter;stroke-miterlimit:4;stroke-dasharray:none;stroke-opacity:1"
         d="m 1369.42,585.531 c -41.89,0 -153.1,3.938 -271.15,-15.121 -118.028,-19.031 -258.707,-66.039 -286.25,-99.07 -19.649,-23.578 -28.961,-64.77 9.101,-87.61 38.09,-22.859 133.109,-66.628 346.489,-81.871 201.33,-14.371 175.15,-7.609 175.15,-7.609 0,0 -236.87,22.93 -303.67,39.48 -94.219,23.352 -144.078,42.739 -165.137,55.04 -26.211,15.32 -34.488,45.652 -19.265,64.679 15.234,19.051 64.714,43.949 114.207,59.172 49.515,15.238 111.155,31.02 183.495,42.438 72.35,11.421 217.03,30.472 217.03,30.472 z" /><path
         id="path198"
         style="fill:#aae4f7;fill-opacity:1;fill-rule:nonzero;stroke:none"
         d="m 1635.94,555.059 c 0,0 57.11,-3.809 140.88,-19.039 83.75,-15.219 144.69,-38.071 171.33,-60.918 26.66,-22.84 19.04,-49.5 -7.62,-72.34 -26.64,-22.84 -146.58,-57.114 -245.56,-64.731 -128.36,-9.859 -237.99,0 -310.31,3.809 -72.37,3.808 197.97,1.898 281.73,13.32 83.77,11.442 209.44,47.602 232.27,70.442 22.85,22.847 22.85,30.468 -3.81,49.5 -26.66,19.046 -102.79,38.078 -129.45,45.699 -26.65,7.597 -129.46,34.258 -129.46,34.258" /><path
         id="path200"
         style="fill:none;stroke:#aae4f7;stroke-width:10;stroke-linecap:butt;stroke-linejoin:miter;stroke-miterlimit:4;stroke-dasharray:none;stroke-opacity:1"
         d="m 1635.94,555.059 c 0,0 57.11,-3.809 140.88,-19.039 83.75,-15.219 144.69,-38.071 171.33,-60.918 26.66,-22.84 19.04,-49.5 -7.62,-72.34 -26.64,-22.84 -146.58,-57.114 -245.56,-64.731 -128.36,-9.859 -237.99,0 -310.31,3.809 -72.37,3.808 197.97,1.898 281.73,13.32 83.77,11.442 209.44,47.602 232.27,70.442 22.85,22.847 22.85,30.468 -3.81,49.5 -26.66,19.046 -102.79,38.078 -129.45,45.699 -26.65,7.597 -129.46,34.258 -129.46,34.258 z" /><path
         id="path202"
         style="fill:#aae4f7;fill-opacity:1;fill-rule:nonzero;stroke:none"
         d="m 1289.46,520.801 c 0,0 -30.47,0 -68.53,-26.653 -38.07,-26.648 -45.71,-53.316 3.81,-64.738 49.49,-11.43 178.94,-19.031 289.37,-3.808 110.41,15.23 205.58,45.699 205.58,45.699 0,0 -134.66,-19.551 -237.47,-23.36 -102.82,-3.793 -173.15,-4.421 -209.18,11.02 -28.89,12.379 -26.84,27.519 -12.39,39.898 19.28,16.532 28.81,21.942 28.81,21.942" /><path
         id="path204"
         style="fill:none;stroke:#aae4f7;stroke-width:10;stroke-linecap:butt;stroke-linejoin:miter;stroke-miterlimit:4;stroke-dasharray:none;stroke-opacity:1"
         d="m 1289.46,520.801 c 0,0 -30.47,0 -68.53,-26.653 -38.07,-26.648 -45.71,-53.316 3.81,-64.738 49.49,-11.43 178.94,-19.031 289.37,-3.808 110.41,15.23 205.58,45.699 205.58,45.699 0,0 -134.66,-19.551 -237.47,-23.36 -102.82,-3.793 -173.15,-4.421 -209.18,11.02 -28.89,12.379 -26.84,27.519 -12.39,39.898 19.28,16.532 28.81,21.942 28.81,21.942 z" /><path
         id="path206"
         style="fill:#aae4f7;fill-opacity:1;fill-rule:nonzero;stroke:none"
         d="m 1041.96,475.102 c 0,0 -17.13,-49.082 9.51,-64.301 26.66,-15.25 135.2,-46.121 192.29,-53.719 57.13,-7.621 -82.19,1.418 -163.71,19.027 -73.13,15.801 -102.816,34.27 -79.96,64.723 22.83,30.469 41.87,34.27 41.87,34.27" /><path
         id="path208"
         style="fill:none;stroke:#aae4f7;stroke-width:10;stroke-linecap:butt;stroke-linejoin:miter;stroke-miterlimit:4;stroke-dasharray:none;stroke-opacity:1"
         d="m 1041.96,475.102 c 0,0 -17.13,-49.082 9.51,-64.301 26.66,-15.25 135.2,-46.121 192.29,-53.719 57.13,-7.621 -82.19,1.418 -163.71,19.027 -73.13,15.801 -102.816,34.27 -79.96,64.723 22.83,30.469 41.87,34.27 41.87,34.27 z" /><path
         id="path210"
         style="fill:#aae4f7;fill-opacity:1;fill-rule:nonzero;stroke:none"
         d="m 2077.62,452.262 c 0,0 38.07,-38.082 30.45,-68.532 -7.62,-30.46 -76.13,-60.921 -137.07,-76.148 -60.92,-15.242 -148.5,-30.473 -182.75,-30.473 -34.28,0 125.64,30.473 167.52,45.7 41.89,15.222 86.54,28.812 106.62,60.921 16.27,26.032 15.23,68.532 15.23,68.532" /><path
         id="path212"
         style="fill:none;stroke:#aae4f7;stroke-width:10;stroke-linecap:butt;stroke-linejoin:miter;stroke-miterlimit:4;stroke-dasharray:none;stroke-opacity:1"
         d="m 2077.62,452.262 c 0,0 38.07,-38.082 30.45,-68.532 -7.62,-30.46 -76.13,-60.921 -137.07,-76.148 -60.92,-15.242 -148.5,-30.473 -182.75,-30.473 -34.28,0 125.64,30.473 167.52,45.7 41.89,15.222 86.54,28.812 106.62,60.921 16.27,26.032 15.23,68.532 15.23,68.532 z" /><path
         id="path214"
         style="fill:#aae4f7;fill-opacity:1;fill-rule:nonzero;stroke:none"
         d="m 1653.7,178.711 c 0,0 -70.12,-45.012 -121.39,-57.051 -71.68,-16.84 -86.27,-20.359 -149.02,-18.488 -62.77,1.879 -142.87,19.328 -175.86,28.609 -32.99,9.309 129.08,-5.062 173.65,-5.062 61.47,0 113.93,14.492 150.61,23.91 56.84,14.601 122.01,28.082 122.01,28.082" /><path
         id="path216"
         style="fill:none;stroke:#aae4f7;stroke-width:10;stroke-linecap:butt;stroke-linejoin:miter;stroke-miterlimit:4;stroke-dasharray:none;stroke-opacity:1"
         d="m 1653.7,178.711 c 0,0 -70.12,-45.012 -121.39,-57.051 -71.68,-16.84 -86.27,-20.359 -149.02,-18.488 -62.77,1.879 -142.87,19.328 -175.86,28.609 -32.99,9.309 129.08,-5.062 173.65,-5.062 61.47,0 113.93,14.492 150.61,23.91 56.84,14.601 122.01,28.082 122.01,28.082 z" /><path
         id="path218"
         style="fill:#aae4f7;fill-opacity:1;fill-rule:nonzero;stroke:none"
         d="m 775.383,330.09 c 0,0 -22.856,-19.031 7.605,-49.488 30.457,-30.461 118.035,-68.532 190.379,-79.961 72.343,-11.43 163.733,-22.84 182.753,-22.84 19.05,0 -210.878,5.738 -304.597,26.648 -41.543,9.27 -102.8,30.461 -114.226,53.313 -11.43,22.84 22.848,60.918 38.086,72.328" /><path
         id="path220"
         style="fill:none;stroke:#aae4f7;stroke-width:10;stroke-linecap:butt;stroke-linejoin:miter;stroke-miterlimit:4;stroke-dasharray:none;stroke-opacity:1"
         d="m 775.383,330.09 c 0,0 -22.856,-19.031 7.605,-49.488 30.457,-30.461 118.035,-68.532 190.379,-79.961 72.343,-11.43 163.733,-22.84 182.753,-22.84 19.05,0 -210.878,5.738 -304.597,26.648 -41.543,9.27 -102.8,30.461 -114.226,53.313 -11.43,22.84 22.848,60.918 38.086,72.328 z" /><path
         id="path222"
         style="fill:#aae4f7;fill-opacity:1;fill-rule:nonzero;stroke:none"
         d="M 813.508,520.801 783.059,467.5 c 0,0 -108.645,9.34 -209.414,213.211 -120.286,243.328 40.21,-44.231 129.668,-121.289 36.726,-31.652 110.195,-38.621 110.195,-38.621" /><path
         id="path224"
         style="fill:none;stroke:#aae4f7;stroke-width:10;stroke-linecap:butt;stroke-linejoin:miter;stroke-miterlimit:4;stroke-dasharray:none;stroke-opacity:1"
         d="M 813.508,520.801 783.059,467.5 c 0,0 -108.645,9.34 -209.414,213.211 -120.286,243.328 40.21,-44.231 129.668,-121.289 36.726,-31.652 110.195,-38.621 110.195,-38.621 z" /><path
         id="path226"
         style="fill:#aae4f7;fill-opacity:1;fill-rule:nonzero;stroke:none"
         d="m 855.398,551.25 79.954,19.039 c 0,0 -106.399,67.152 -137.09,97.84 -56.414,56.422 -125.617,168.703 -152.278,218.191 -26.66,49.5 -72.339,167.53 -79.961,190.37 -7.617,22.85 15.227,-178.94 60.918,-274.139 45.704,-95.192 119.028,-171.582 156.118,-201.789 35.546,-28.973 72.339,-49.512 72.339,-49.512" /><path
         id="path228"
         style="fill:none;stroke:#aae4f7;stroke-width:10;stroke-linecap:butt;stroke-linejoin:miter;stroke-miterlimit:4;stroke-dasharray:none;stroke-opacity:1"
         d="m 855.398,551.25 79.954,19.039 c 0,0 -106.399,67.152 -137.09,97.84 -56.414,56.422 -125.617,168.703 -152.278,218.191 -26.66,49.5 -72.339,167.53 -79.961,190.37 -7.617,22.85 15.227,-178.94 60.918,-274.139 45.704,-95.192 119.028,-171.582 156.118,-201.789 35.546,-28.973 72.339,-49.512 72.339,-49.512 z" /><path
         id="path230"
         style="fill:#aae4f7;fill-opacity:1;fill-rule:nonzero;stroke:none"
         d="m 1938.68,572.059 39.29,-41.047 c 0,0 101.37,71.617 141.53,147.898 35.86,68.149 33.42,96.922 33.42,96.922 0,0 -74.58,-92.551 -99.07,-121.941 -24.51,-29.391 -115.17,-81.832 -115.17,-81.832" /><path
         id="path232"
         style="fill:none;stroke:#aae4f7;stroke-width:10;stroke-linecap:butt;stroke-linejoin:miter;stroke-miterlimit:4;stroke-dasharray:none;stroke-opacity:1"
         d="m 1938.68,572.059 39.29,-41.047 c 0,0 101.37,71.617 141.53,147.898 35.86,68.149 33.42,96.922 33.42,96.922 0,0 -74.58,-92.551 -99.07,-121.941 -24.51,-29.391 -115.17,-81.832 -115.17,-81.832 z" /><path
         id="path234"
         style="fill:#231f20;fill-opacity:1;fill-rule:nonzero;stroke:none"
         d="m 1378.13,2066.66 c 7.13,-10.34 -1.38,-21.55 -12.69,-25.06 -11.13,0 -11.47,6.72 -4.63,19.55 5.18,2.93 11.35,5.65 17.32,5.51" /><path
         id="path236"
         style="fill:none;stroke:#231f20;stroke-width:10;stroke-linecap:butt;stroke-linejoin:miter;stroke-miterlimit:4;stroke-dasharray:none;stroke-opacity:1"
         d="m 1378.13,2066.66 c 7.13,-10.34 -1.38,-21.55 -12.69,-25.06 -11.13,0 -11.47,6.72 -4.63,19.55 5.18,2.93 11.35,5.65 17.32,5.51" /><path
         id="path238"
         style="fill:#231f20;fill-opacity:1;fill-rule:nonzero;stroke:none"
         d="m 1365.44,1990.51 c 8.18,-8.17 9.51,-20.81 -0.37,-27.55 -3.24,-1.28 -4.44,-7.08 -11.88,-2.58 -6.31,13.48 -0.02,30.13 12.25,30.13" /><path
         id="path240"
         style="fill:none;stroke:#231f20;stroke-width:10;stroke-linecap:butt;stroke-linejoin:miter;stroke-miterlimit:4;stroke-dasharray:none;stroke-opacity:1"
         d="m 1365.44,1990.51 c 8.18,-8.17 9.51,-20.81 -0.37,-27.55 -3.24,-1.28 -4.44,-7.08 -11.88,-2.58 -6.31,13.48 -0.02,30.13 12.25,30.13" /><path
         id="path242"
         style="fill:#231f20;fill-opacity:1;fill-rule:nonzero;stroke:none"
         d="m 1276.92,1972.75 c 17.45,6.34 18.36,-21.81 2.09,-22.52 -4.04,8.08 -8.98,16.01 -2.09,22.52" /><path
         id="path244"
         style="fill:none;stroke:#231f20;stroke-width:10;stroke-linecap:butt;stroke-linejoin:miter;stroke-miterlimit:4;stroke-dasharray:none;stroke-opacity:1"
         d="m 1276.92,1972.75 c 17.45,6.34 18.36,-21.81 2.09,-22.52 -4.04,8.08 -8.98,16.01 -2.09,22.52" /><path
         id="path246"
         style="fill:#231f20;fill-opacity:1;fill-rule:nonzero;stroke:none"
         d="m 1454.93,2097.12 c 17.44,6.35 18.36,-21.78 2.09,-22.52 -4.04,8.09 -8.98,16.01 -2.09,22.52" /><path
         id="path248"
         style="fill:none;stroke:#231f20;stroke-width:10;stroke-linecap:butt;stroke-linejoin:miter;stroke-miterlimit:4;stroke-dasharray:none;stroke-opacity:1"
         d="m 1454.93,2097.12 c 17.44,6.35 18.36,-21.78 2.09,-22.52 -4.04,8.09 -8.98,16.01 -2.09,22.52" /><path
         id="path250"
         style="fill:#231f20;fill-opacity:1;fill-rule:nonzero;stroke:none"
         d="m 1304.56,1899.1 c 14.55,-13.14 -14.47,-26.22 -15.98,-21.05 -3.24,11.08 3.87,19.48 15.98,21.05" /><path
         id="path252"
         style="fill:none;stroke:#231f20;stroke-width:10;stroke-linecap:butt;stroke-linejoin:miter;stroke-miterlimit:4;stroke-dasharray:none;stroke-opacity:1"
         d="m 1304.56,1899.1 c 14.55,-13.14 -14.47,-26.22 -15.98,-21.05 -3.24,11.08 3.87,19.48 15.98,21.05" /><path
         id="path254"
         style="fill:#231f20;fill-opacity:1;fill-rule:nonzero;stroke:none"
         d="m 1366.1,1849.73 c 14.55,-13.13 -14.47,-26.22 -15.97,-21.05 -3.25,11.07 3.86,19.49 15.97,21.05" /><path
         id="path256"
         style="fill:none;stroke:#231f20;stroke-width:10;stroke-linecap:butt;stroke-linejoin:miter;stroke-miterlimit:4;stroke-dasharray:none;stroke-opacity:1"
         d="m 1366.1,1849.73 c 14.55,-13.13 -14.47,-26.22 -15.97,-21.05 -3.25,11.07 3.86,19.49 15.97,21.05" /><path
         id="path258"
         style="fill:#231f20;fill-opacity:1;fill-rule:nonzero;stroke:none"
         d="m 1213.13,1863.59 c 2.56,-10.84 -6.23,-35.68 -19.64,-24.73 -14.77,12.01 11.17,25.32 19.64,24.73" /><path
         id="path260"
         style="fill:none;stroke:#231f20;stroke-width:10;stroke-linecap:butt;stroke-linejoin:miter;stroke-miterlimit:4;stroke-dasharray:none;stroke-opacity:1"
         d="m 1213.13,1863.59 c 2.56,-10.84 -6.23,-35.68 -19.64,-24.73 -14.77,12.01 11.17,25.32 19.64,24.73" /><path
         id="path262"
         style="fill:#231f20;fill-opacity:1;fill-rule:nonzero;stroke:none"
         d="m 1503.47,2153.92 c 2.56,-10.85 -6.25,-35.67 -19.67,-24.74 -14.75,12.03 11.19,25.32 19.67,24.74" /><path
         id="path264"
         style="fill:none;stroke:#231f20;stroke-width:10;stroke-linecap:butt;stroke-linejoin:miter;stroke-miterlimit:4;stroke-dasharray:none;stroke-opacity:1"
         d="m 1503.47,2153.92 c 2.56,-10.85 -6.25,-35.67 -19.67,-24.74 -14.75,12.03 11.19,25.32 19.67,24.74" /><path
         id="path266"
         style="fill:#231f20;fill-opacity:1;fill-rule:nonzero;stroke:none"
         d="m 1256.28,1848.36 c 9.63,-2.28 23.01,-14.73 10.86,-23.52 -13.97,-10.09 -25.74,15.3 -10.86,23.52" /><path
         id="path268"
         style="fill:none;stroke:#231f20;stroke-width:10;stroke-linecap:butt;stroke-linejoin:miter;stroke-miterlimit:4;stroke-dasharray:none;stroke-opacity:1"
         d="m 1256.28,1848.36 c 9.63,-2.28 23.01,-14.73 10.86,-23.52 -13.97,-10.09 -25.74,15.3 -10.86,23.52" /><path
         id="path270"
         style="fill:#231f20;fill-opacity:1;fill-rule:nonzero;stroke:none"
         d="m 1195.36,1795.06 c 6.84,-5.66 9.34,-13.37 7.25,-22.46 -16.9,-4.76 -24.12,15.88 -7.25,22.46" /><path
         id="path272"
         style="fill:none;stroke:#231f20;stroke-width:10;stroke-linecap:butt;stroke-linejoin:miter;stroke-miterlimit:4;stroke-dasharray:none;stroke-opacity:1"
         d="m 1195.36,1795.06 c 6.84,-5.66 9.34,-13.37 7.25,-22.46 -16.9,-4.76 -24.12,15.88 -7.25,22.46" /><path
         id="path274"
         style="fill:#231f20;fill-opacity:1;fill-rule:nonzero;stroke:none"
         d="m 1294.37,1806.48 c 6.81,-5.65 9.33,-13.36 7.24,-22.46 -16.91,-4.77 -24.12,15.88 -7.24,22.46" /><path
         id="path276"
         style="fill:none;stroke:#231f20;stroke-width:10;stroke-linecap:butt;stroke-linejoin:miter;stroke-miterlimit:4;stroke-dasharray:none;stroke-opacity:1"
         d="m 1294.37,1806.48 c 6.81,-5.65 9.33,-13.36 7.24,-22.46 -16.91,-4.77 -24.12,15.88 -7.24,22.46" /><path
         id="path278"
         style="fill:#231f20;fill-opacity:1;fill-rule:nonzero;stroke:none"
         d="m 1251.9,1713.97 c 5.61,-7.03 9.05,-21.85 -2.42,-25.51 -12.79,-4.08 -12.89,23.97 2.42,25.51" /><path
         id="path280"
         style="fill:none;stroke:#231f20;stroke-width:10;stroke-linecap:butt;stroke-linejoin:miter;stroke-miterlimit:4;stroke-dasharray:none;stroke-opacity:1"
         d="m 1251.9,1713.97 c 5.61,-7.03 9.05,-21.85 -2.42,-25.51 -12.79,-4.08 -12.89,23.97 2.42,25.51" /><path
         id="path282"
         style="fill:#231f20;fill-opacity:1;fill-rule:nonzero;stroke:none"
         d="m 1178.86,1468.88 c 5.62,-7.03 9.06,-21.83 -2.4,-25.5 -12.8,-4.07 -12.88,23.96 2.4,25.5" /><path
         id="path284"
         style="fill:none;stroke:#231f20;stroke-width:10;stroke-linecap:butt;stroke-linejoin:miter;stroke-miterlimit:4;stroke-dasharray:none;stroke-opacity:1"
         d="m 1178.86,1468.88 c 5.62,-7.03 9.06,-21.83 -2.4,-25.5 -12.8,-4.07 -12.88,23.96 2.4,25.5" /><path
         id="path286"
         style="fill:#231f20;fill-opacity:1;fill-rule:nonzero;stroke:none"
         d="m 1163.64,1767.78 c 10.84,-10.83 16.21,-35.03 -7.22,-30.08 -7.52,3.58 -10.55,34.51 7.22,30.08" /><path
         id="path288"
         style="fill:none;stroke:#231f20;stroke-width:10;stroke-linecap:butt;stroke-linejoin:miter;stroke-miterlimit:4;stroke-dasharray:none;stroke-opacity:1"
         d="m 1163.64,1767.78 c 10.84,-10.83 16.21,-35.03 -7.22,-30.08 -7.52,3.58 -10.55,34.51 7.22,30.08" /><path
         id="path290"
         style="fill:#231f20;fill-opacity:1;fill-rule:nonzero;stroke:none"
         d="m 1160.22,1624.03 c -3.18,-10.86 -21.56,-27.29 -28.1,-20.74 -10.68,20.26 23.34,33.76 28.1,20.74" /><path
         id="path292"
         style="fill:none;stroke:#231f20;stroke-width:10;stroke-linecap:butt;stroke-linejoin:miter;stroke-miterlimit:4;stroke-dasharray:none;stroke-opacity:1"
         d="m 1160.22,1624.03 c -3.18,-10.86 -21.56,-27.29 -28.1,-20.74 -10.68,20.26 23.34,33.76 28.1,20.74" /><path
         id="path294"
         style="fill:#231f20;fill-opacity:1;fill-rule:nonzero;stroke:none"
         d="m 1109.07,1642.76 c 10.14,-5.83 7.62,-14.08 -0.45,-19.87 -21.79,-11.98 -25.62,21.11 0.45,19.87" /><path
         id="path296"
         style="fill:none;stroke:#231f20;stroke-width:10;stroke-linecap:butt;stroke-linejoin:miter;stroke-miterlimit:4;stroke-dasharray:none;stroke-opacity:1"
         d="m 1109.07,1642.76 c 10.14,-5.83 7.62,-14.08 -0.45,-19.87 -21.79,-11.98 -25.62,21.11 0.45,19.87" /><path
         id="path298"
         style="fill:#231f20;fill-opacity:1;fill-rule:nonzero;stroke:none"
         d="m 1093.84,1552.68 c 41.87,21.11 -12.66,-49.71 0,0" /><path
         id="path300"
         style="fill:none;stroke:#231f20;stroke-width:10;stroke-linecap:butt;stroke-linejoin:miter;stroke-miterlimit:4;stroke-dasharray:none;stroke-opacity:1"
         d="m 1093.84,1552.68 c 41.87,21.11 -12.66,-49.71 0,0" /><path
         id="path302"
         style="fill:#231f20;fill-opacity:1;fill-rule:nonzero;stroke:none"
         d="m 1128.1,1685.94 c 41.89,21.13 -12.64,-49.7 0,0" /><path
         id="path304"
         style="fill:none;stroke:#231f20;stroke-width:10;stroke-linecap:butt;stroke-linejoin:miter;stroke-miterlimit:4;stroke-dasharray:none;stroke-opacity:1"
         d="m 1128.1,1685.94 c 41.89,21.13 -12.64,-49.7 0,0" /><path
         id="path306"
         style="fill:#231f20;fill-opacity:1;fill-rule:nonzero;stroke:none"
         d="m 1408.08,2015.7 c 46.83,-2.67 -35.8,-36.72 0,0" /><path
         id="path308"
         style="fill:none;stroke:#231f20;stroke-width:10;stroke-linecap:butt;stroke-linejoin:miter;stroke-miterlimit:4;stroke-dasharray:none;stroke-opacity:1"
         d="m 1408.08,2015.7 c 46.83,-2.67 -35.8,-36.72 0,0" /><path
         id="path310"
         style="fill:#231f20;fill-opacity:1;fill-rule:nonzero;stroke:none"
         d="m 1078.6,1500.61 c 10.92,-6.47 -6.38,-33.09 -15.97,-21.06 -10.24,12.84 8.88,24.51 18.51,18.52" /><path
         id="path312"
         style="fill:none;stroke:#231f20;stroke-width:10;stroke-linecap:butt;stroke-linejoin:miter;stroke-miterlimit:4;stroke-dasharray:none;stroke-opacity:1"
         d="m 1078.6,1500.61 c 10.92,-6.47 -6.38,-33.09 -15.97,-21.06 -10.24,12.84 8.88,24.51 18.51,18.52" /><path
         id="path314"
         style="fill:#231f20;fill-opacity:1;fill-rule:nonzero;stroke:none"
         d="m 1111.18,1161.94 c 10.9,-6.47 -6.4,-33.08 -15.99,-21.05 -10.24,12.84 8.88,24.51 18.51,18.52" /><path
         id="path316"
         style="fill:none;stroke:#231f20;stroke-width:10;stroke-linecap:butt;stroke-linejoin:miter;stroke-miterlimit:4;stroke-dasharray:none;stroke-opacity:1"
         d="m 1111.18,1161.94 c 10.9,-6.47 -6.4,-33.08 -15.99,-21.05 -10.24,12.84 8.88,24.51 18.51,18.52" /><path
         id="path318"
         style="fill:#231f20;fill-opacity:1;fill-rule:nonzero;stroke:none"
         d="m 1148.66,1531.96 c -2.95,-8.58 -7.81,-12.32 -17.38,-9.77 -8.36,20.41 21.85,25.89 17.38,9.77" /><path
         id="path320"
         style="fill:none;stroke:#231f20;stroke-width:10;stroke-linecap:butt;stroke-linejoin:miter;stroke-miterlimit:4;stroke-dasharray:none;stroke-opacity:1"
         d="m 1148.66,1531.96 c -2.95,-8.58 -7.81,-12.32 -17.38,-9.77 -8.36,20.41 21.85,25.89 17.38,9.77" /><path
         id="path322"
         style="fill:#231f20;fill-opacity:1;fill-rule:nonzero;stroke:none"
         d="m 1084.93,1207.17 c -2.97,-8.58 -7.81,-12.3 -17.4,-9.77 -8.36,20.42 21.85,25.9 17.4,9.77" /><path
         id="path324"
         style="fill:none;stroke:#231f20;stroke-width:10;stroke-linecap:butt;stroke-linejoin:miter;stroke-miterlimit:4;stroke-dasharray:none;stroke-opacity:1"
         d="m 1084.93,1207.17 c -2.97,-8.58 -7.81,-12.3 -17.4,-9.77 -8.36,20.42 21.85,25.9 17.4,9.77" /><path
         id="path326"
         style="fill:#231f20;fill-opacity:1;fill-rule:nonzero;stroke:none"
         d="m 1091.26,1331.55 c -2.93,-8.58 -7.79,-12.31 -17.38,-9.77 -8.36,20.41 21.85,25.89 17.38,9.77" /><path
         id="path328"
         style="fill:none;stroke:#231f20;stroke-width:10;stroke-linecap:butt;stroke-linejoin:miter;stroke-miterlimit:4;stroke-dasharray:none;stroke-opacity:1"
         d="m 1091.26,1331.55 c -2.93,-8.58 -7.79,-12.31 -17.38,-9.77 -8.36,20.41 21.85,25.89 17.38,9.77" /><path
         id="path330"
         style="fill:#231f20;fill-opacity:1;fill-rule:nonzero;stroke:none"
         d="m 1365.42,1909.04 c -2.95,-8.6 -7.81,-12.32 -17.38,-9.78 -8.38,20.42 21.85,25.89 17.38,9.78" /><path
         id="path332"
         style="fill:none;stroke:#231f20;stroke-width:10;stroke-linecap:butt;stroke-linejoin:miter;stroke-miterlimit:4;stroke-dasharray:none;stroke-opacity:1"
         d="m 1365.42,1909.04 c -2.95,-8.6 -7.81,-12.32 -17.38,-9.78 -8.38,20.42 21.85,25.89 17.38,9.78" /><path
         id="path334"
         style="fill:#231f20;fill-opacity:1;fill-rule:nonzero;stroke:none"
         d="m 1078.6,1376.24 c -4.25,-17.82 -30.11,-7.07 -22.4,7.73 6.82,13.07 21.47,2.34 22.4,-7.73" /><path
         id="path336"
         style="fill:none;stroke:#231f20;stroke-width:10;stroke-linecap:butt;stroke-linejoin:miter;stroke-miterlimit:4;stroke-dasharray:none;stroke-opacity:1"
         d="m 1078.6,1376.24 c -4.25,-17.82 -30.11,-7.07 -22.4,7.73 6.82,13.07 21.47,2.34 22.4,-7.73" /><path
         id="path338"
         style="fill:#231f20;fill-opacity:1;fill-rule:nonzero;stroke:none"
         d="m 1133.19,1066.55 c -4.27,-17.8 -30.11,-7.05 -22.42,7.74 6.82,13.07 21.47,2.35 22.42,-7.74" /><path
         id="path340"
         style="fill:none;stroke:#231f20;stroke-width:10;stroke-linecap:butt;stroke-linejoin:miter;stroke-miterlimit:4;stroke-dasharray:none;stroke-opacity:1"
         d="m 1133.19,1066.55 c -4.27,-17.8 -30.11,-7.05 -22.42,7.74 6.82,13.07 21.47,2.35 22.42,-7.74" /><path
         id="path342"
         style="fill:#231f20;fill-opacity:1;fill-rule:nonzero;stroke:none"
         d="m 1288.12,1646.67 c -0.02,-11.11 -6.59,-14.95 -17.39,-12.31 -7.99,12.47 10.3,24.36 17.39,12.31" /><path
         id="path344"
         style="fill:none;stroke:#231f20;stroke-width:10;stroke-linecap:butt;stroke-linejoin:miter;stroke-miterlimit:4;stroke-dasharray:none;stroke-opacity:1"
         d="m 1288.12,1646.67 c -0.02,-11.11 -6.59,-14.95 -17.39,-12.31 -7.99,12.47 10.3,24.36 17.39,12.31" /><path
         id="path346"
         style="fill:#231f20;fill-opacity:1;fill-rule:nonzero;stroke:none"
         d="m 1138.49,1351.1 c -0.04,-11.12 -6.61,-14.95 -17.39,-12.32 -8,12.47 10.3,24.37 17.39,12.32" /><path
         id="path348"
         style="fill:none;stroke:#231f20;stroke-width:10;stroke-linecap:butt;stroke-linejoin:miter;stroke-miterlimit:4;stroke-dasharray:none;stroke-opacity:1"
         d="m 1138.49,1351.1 c -0.04,-11.12 -6.61,-14.95 -17.39,-12.32 -8,12.47 10.3,24.37 17.39,12.32" /><path
         id="path350"
         style="fill:#231f20;fill-opacity:1;fill-rule:nonzero;stroke:none"
         d="m 1211.87,1536.15 c -0.04,-11.13 -6.61,-14.95 -17.39,-12.31 -8.01,12.46 10.3,24.36 17.39,12.31" /><path
         id="path352"
         style="fill:none;stroke:#231f20;stroke-width:10;stroke-linecap:butt;stroke-linejoin:miter;stroke-miterlimit:4;stroke-dasharray:none;stroke-opacity:1"
         d="m 1211.87,1536.15 c -0.04,-11.13 -6.61,-14.95 -17.39,-12.31 -8.01,12.46 10.3,24.36 17.39,12.31" /><path
         id="path354"
         style="fill:#231f20;fill-opacity:1;fill-rule:nonzero;stroke:none"
         d="m 1076.06,1272.15 c -0.39,-26.44 -28,-11.76 -27.46,9.71 5.02,13.55 28.89,0.79 27.46,-9.71" /><path
         id="path356"
         style="fill:none;stroke:#231f20;stroke-width:10;stroke-linecap:butt;stroke-linejoin:miter;stroke-miterlimit:4;stroke-dasharray:none;stroke-opacity:1"
         d="m 1076.06,1272.15 c -0.39,-26.44 -28,-11.76 -27.46,9.71 5.02,13.55 28.89,0.79 27.46,-9.71" /><path
         id="path358"
         style="fill:#231f20;fill-opacity:1;fill-rule:nonzero;stroke:none"
         d="m 1120.48,1435.25 c 13.96,0 13.96,-15.47 4.71,-20.57 -12.45,-3.36 -19.65,1.61 -17.02,14.47 0,8.63 8.42,6.69 12.31,6.1" /><path
         id="path360"
         style="fill:none;stroke:#231f20;stroke-width:10;stroke-linecap:butt;stroke-linejoin:miter;stroke-miterlimit:4;stroke-dasharray:none;stroke-opacity:1"
         d="m 1120.48,1435.25 c 13.96,0 13.96,-15.47 4.71,-20.57 -12.45,-3.36 -19.65,1.61 -17.02,14.47 0,8.63 8.42,6.69 12.31,6.1" /><path
         id="path362"
         style="fill:#231f20;fill-opacity:1;fill-rule:nonzero;stroke:none"
         d="m 1120.48,1267.08 c 13.96,0 13.96,-15.46 4.71,-20.56 -12.45,-3.36 -19.65,1.61 -17.02,14.46 0,8.63 8.42,6.7 12.31,6.1" /><path
         id="path364"
         style="fill:none;stroke:#231f20;stroke-width:10;stroke-linecap:butt;stroke-linejoin:miter;stroke-miterlimit:4;stroke-dasharray:none;stroke-opacity:1"
         d="m 1120.48,1267.08 c 13.96,0 13.96,-15.46 4.71,-20.56 -12.45,-3.36 -19.65,1.61 -17.02,14.46 0,8.63 8.42,6.7 12.31,6.1" /><path
         id="path366"
         style="fill:#231f20;fill-opacity:1;fill-rule:nonzero;stroke:none"
         d="m 1241.06,1906.74 c 10.2,-10.29 -2.96,-17.48 -14.86,-17.45 -7.79,15.61 -0.98,21.26 14.86,17.45" /><path
         id="path368"
         style="fill:none;stroke:#231f20;stroke-width:10;stroke-linecap:butt;stroke-linejoin:miter;stroke-miterlimit:4;stroke-dasharray:none;stroke-opacity:1"
         d="m 1241.06,1906.74 c 10.2,-10.29 -2.96,-17.48 -14.86,-17.45 -7.79,15.61 -0.98,21.26 14.86,17.45" /><path
         id="path370"
         style="fill:#231f20;fill-opacity:1;fill-rule:nonzero;stroke:none"
         d="m 1225.75,1622.19 c 10.2,-10.3 -2.97,-17.48 -14.84,-17.45 -7.81,15.6 -1,21.25 14.84,17.45" /><path
         id="path372"
         style="fill:none;stroke:#231f20;stroke-width:10;stroke-linecap:butt;stroke-linejoin:miter;stroke-miterlimit:4;stroke-dasharray:none;stroke-opacity:1"
         d="m 1225.75,1622.19 c 10.2,-10.3 -2.97,-17.48 -14.84,-17.45 -7.81,15.6 -1,21.25 14.84,17.45" /><path
         id="path374"
         style="fill:#231f20;fill-opacity:1;fill-rule:nonzero;stroke:none"
         d="m 1201.38,1684.98 c -5.18,-6.42 -15.2,-12.96 -24.2,-10.56 -8.01,4.05 -3.95,10.4 0.06,14.39 11.07,4.82 21.81,10.46 24.14,-3.83" /><path
         id="path376"
         style="fill:none;stroke:#231f20;stroke-width:10;stroke-linecap:butt;stroke-linejoin:miter;stroke-miterlimit:4;stroke-dasharray:none;stroke-opacity:1"
         d="m 1201.38,1684.98 c -5.18,-6.42 -15.2,-12.96 -24.2,-10.56 -8.01,4.05 -3.95,10.4 0.06,14.39 11.07,4.82 21.81,10.46 24.14,-3.83" /><path
         id="path378"
         style="fill:#231f20;fill-opacity:1;fill-rule:nonzero;stroke:none"
         d="m 1251.22,1764.6 c 9.24,-15.62 -3.71,-24.86 -19.88,-19.87 -9.87,17.69 10.1,25.11 22.4,17.33" /><path
         id="path380"
         style="fill:none;stroke:#231f20;stroke-width:10;stroke-linecap:butt;stroke-linejoin:miter;stroke-miterlimit:4;stroke-dasharray:none;stroke-opacity:1"
         d="m 1251.22,1764.6 c 9.24,-15.62 -3.71,-24.86 -19.88,-19.87 -9.87,17.69 10.1,25.11 22.4,17.33" /></g></g></svg>